<?xml version="1.0" encoding="UTF-8"?>
<svg version="1.1" xmlns="http://www.w3.org/2000/svg" width="512" height="512">
<path d="M0 0 C5.45951243 4.80957047 6.46602755 11.25063492 7.9375 18.0625 C11.4392727 33.35859506 16.09750671 47.51517148 23.56298828 61.34472656 C24.63057425 63.32282837 25.67245606 65.31321675 26.71484375 67.3046875 C33.05026172 79.18576586 41.9993839 95.94080252 53.625 103.3125 C56.51625179 103.0228068 58.78017395 101.80718579 61.3125 100.4375 C84.5374444 88.67587678 112.70465131 92.51611524 136.625 100.3125 C146.8190778 103.77552105 156.83128206 107.61899682 166.375 112.625 C167.00083984 112.95016602 167.62667969 113.27533203 168.27148438 113.61035156 C172.49773021 115.93069064 172.49773021 115.93069064 173.625 119.3125 C175.27244779 120.02533799 176.94569505 120.67834142 178.625 121.3125 C192.45599662 128.69690632 203.86513909 137.99447548 215.3125 148.5625 C225.97436731 158.3127004 237.52136911 164.67643373 251.25 169.0625 C252.29486572 169.39757568 253.33973145 169.73265137 254.41625977 170.07788086 C264.67381638 173.23590052 275.08596998 175.5738471 285.5625 177.875 C286.42694733 178.06492523 287.29139465 178.25485046 288.18203735 178.45053101 C289.04404755 178.63983185 289.90605774 178.82913269 290.79418945 179.02416992 C314.88756416 184.31617983 338.0508428 189.95831041 359.625 202.3125 C359.625 202.9725 359.625 203.6325 359.625 204.3125 C360.50929688 204.56257812 361.39359375 204.81265625 362.3046875 205.0703125 C378.87472308 211.26945522 393.92477391 231.90482766 400.94628906 247.24755859 C402.57008765 250.91126357 404.13318829 254.59308836 405.625 258.3125 C405.89965088 258.9923999 406.17430176 259.6722998 406.45727539 260.37280273 C420.10411839 295.28185796 408.69977171 332.43832714 394.46630859 364.95996094 C392.39810418 369.53721602 390.11521316 373.95174745 387.625 378.3125 C387.23022461 379.01020508 386.83544922 379.70791016 386.42871094 380.42675781 C379.18574296 393.08399629 371.03779397 406.00317391 360.625 416.3125 C359.50811244 417.71915939 358.40563514 419.13730386 357.3125 420.5625 C349.18057596 430.78676216 339.92193743 440.08958575 330.75 449.375 C329.85945923 450.28511841 329.85945923 450.28511841 328.95092773 451.21362305 C325.33741733 454.83416852 321.57242285 457.9735741 317.4375 460.98364258 C315.22894159 462.60287526 313.15345027 464.35751165 311.0625 466.125 C291.17808944 482.08124982 265.4120519 492.93417742 240.625 498.3125 C239.99174805 498.46058105 239.35849609 498.60866211 238.70605469 498.76123047 C216.25401997 503.86596377 189.0050001 503.59842434 166.625 498.3125 C165.83770508 498.12977539 165.05041016 497.94705078 164.23925781 497.75878906 C144.96977325 493.08158057 126.28904212 484.51064774 110.625 472.3125 C109.27921875 471.29542969 109.27921875 471.29542969 107.90625 470.2578125 C102.39365011 465.99052885 97.39890195 461.38791155 92.625 456.3125 C92.06425781 455.73371094 91.50351563 455.15492188 90.92578125 454.55859375 C77.6152223 440.19311871 69.5671186 422.89177718 64.22119141 404.26733398 C63.5829842 402.17473566 62.84199744 400.13270179 62.1015625 398.07421875 C60.2837187 392.64369804 59.5105787 387.16185331 58.75 381.5 C58.58491943 380.32002441 58.41983887 379.14004883 58.24975586 377.92431641 C56.93751451 368.28095314 55.87027863 358.61511873 54.81616211 348.94067383 C51.24403515 316.18625122 45.15776847 286.45266129 33.09765625 255.70703125 C29.93386694 247.60523963 27.09666926 239.39848635 24.28515625 231.16943359 C23.71998537 229.57968147 23.08537346 228.01491119 22.4375 226.45703125 C21.625 224.3125 21.625 224.3125 21.625 221.3125 C20.965 221.3125 20.305 221.3125 19.625 221.3125 C14.98153695 206.77041739 10.49955965 192.31867581 7.625 177.3125 C7.43292969 176.405 7.24085937 175.4975 7.04296875 174.5625 C6.40051855 169.56699935 6.39972564 164.59416823 6.375 159.5625 C6.354375 158.52867187 6.33375 157.49484375 6.3125 156.4296875 C6.25869273 145.74894391 8.3037553 137.27919448 15.625 129.3125 C18.20061299 127.03637689 20.76655638 125.21812908 23.625 123.3125 C23.11453125 122.78785156 22.6040625 122.26320313 22.078125 121.72265625 C-2.53329615 95.49665606 -28.03424385 49.42283683 -27.59765625 12.5 C-27.26859357 9.26710347 -26.17876719 6.98474769 -24.375 4.3125 C-23.385 3.9825 -22.395 3.6525 -21.375 3.3125 C-21.375 2.6525 -21.375 1.9925 -21.375 1.3125 C-13.71725186 -2.90559768 -7.98887148 -3.99443574 0 0 Z " fill="#A5D287" transform="translate(64.375,9.6875)"/>
<path d="M0 0 C5.45951243 4.80957047 6.46602755 11.25063492 7.9375 18.0625 C11.4392727 33.35859506 16.09750671 47.51517148 23.56298828 61.34472656 C24.63057425 63.32282837 25.67245606 65.31321675 26.71484375 67.3046875 C33.61491028 80.24605458 41.92339079 92.56251809 52.8828125 102.41796875 C56.62383264 106.48611846 57.02056605 110.80359832 56.87109375 116.10546875 C56.33229859 120.93752058 54.18949775 124.01271465 50.625 127.125 C45.70579154 130.71192283 41.49805449 130.71646671 35.625 130.3125 C31.49408772 129.21092339 29.55703657 127.33616271 26.625 124.3125 C25.45517578 123.65507812 25.45517578 123.65507812 24.26171875 122.984375 C19.32415725 119.85359526 16.13496644 114.91272543 12.625 110.3125 C12.22087891 109.78720703 11.81675781 109.26191406 11.40039062 108.72070312 C-7.0722249 84.49191488 -30.57942938 41.7946132 -27.375 10.3125 C-26.0625 6.8125 -26.0625 6.8125 -24.375 4.3125 C-23.385 3.9825 -22.395 3.6525 -21.375 3.3125 C-21.375 2.6525 -21.375 1.9925 -21.375 1.3125 C-13.71725186 -2.90559768 -7.98887148 -3.99443574 0 0 Z " fill="#662112" transform="translate(64.375,9.6875)"/>
</svg>
